<svg version="1.1" xmlns="http://www.w3.org/2000/svg" viewBox="-13.237608790662913 -26.53657200099936 24.771796104315328 65.9254808650189" fill="none" stroke="black" stroke-width="0.6%" vector-effect="non-scaling-stroke">
    <path d="M -12.23761 -13.17974 L -6.11861 10.13424 L 1.22372 8.91989 A 2.5 1.98455 180 0 0 4.1929 10.45597" />
    <path d="M 5.58909 9.78809 A 2.5 1.98455 180 0 0 6.17117 8.51511" />
    <path d="M 5.32317 6.72151 L 4.43117 3.32288" />
    <path d="M 2.91117 -2.46847 L -0.48987 -15.42676 L -12.23761 -13.48381 L -6.11861 9.83016 L 1.22372 8.61582" />
    <path d="M -12.23761 -13.17974 L -12.23761 -13.48381" />
    <path d="M -6.11861 10.13424 L -6.11861 9.83016" />
    <path d="M 1.22372 8.91989 L 1.22372 8.61582" />
    <path d="M 5.32317 6.72151 A 2.5 1.98455 360 0 1 6.17117 8.21104 A 2.5 1.98455 360 0 1 5.5247 9.54276" />
    <path d="M 4.11624 10.16388 A 2.5 1.98455 360 0 1 1.22372 8.61582" />
    <path d="M 3.76093 8.81012 A 0.76 0.6033 360 0 1 2.91117 8.21104" />
    <path d="M 2.57958 10.30049 L 2.58383 10.31669" />
    <path d="M 2.64757 10.55954 L 2.89616 11.50667 L 4.40325 11.25741" />
    <path d="M 2.89616 11.50667 L 2.89616 10.40189" />
    <path d="M 2.71259 10.54879 A 0.125 0.01551 80.60888 0 0 2.6897 10.34033" />
    <path d="M 3.99604 11.00895 A 0.125 0.07442 345.29382 0 0 3.75423 11.07242" />
    <path d="M 2.59429 10.51767 A 0.125 0.01551 260.60888 0 1 2.57389 10.31833 A 0.125 0.01551 260.60888 1 1 2.61469 10.56498 A 0.125 0.01551 260.60888 0 1 2.59429 10.51767 Z" />
    <path d="M 3.89553 10.58626 A 0.125 0.07442 165.29382 0 1 3.77463 10.54198 A 0.125 0.07442 165.29382 0 1 3.78384 10.49765" />
    <path d="M 4.01693 10.48059 A 0.125 0.07442 165.29382 0 1 3.89553 10.58626" />
    <path d="M 3.89553 11.19442 A 0.125 0.07442 165.29382 0 1 3.77463 11.15013 A 0.125 0.07442 165.29382 0 1 4.01644 11.08666 A 0.125 0.07442 165.29382 0 1 3.89553 11.19442 Z" />
    <path d="M 3.15788 11.46339 A 0.905 0.71841 180 0 0 4.4107 11.2858" />
    <path d="M 2.89616 7.02155 L 3.15343 6.979" />
    <path d="M 4.8008 6.70654 L 4.85411 6.69772 L 4.85411 6.57317" />
    <path d="M 2.48822 5.46728 L 2.58383 5.83156" />
    <path d="M 2.64757 6.07442 L 2.89616 7.02155 L 2.89616 5.80524 L 4.85411 5.48142 L 4.44618 3.92715 L 4.43117 3.92964" />
    <path d="M 2.91117 13.68441 A 0.76 0.6033 180 0 0 4.43117 13.68441" />
    <path d="M 4.85411 6.41684 L 4.85411 5.48142" />
    <path d="M 2.98916 6.39801 A 0.905 0.53881 165.29382 0 1 4.75049 6.02174" />
    <path d="M 2.99978 6.48123 A 0.905 0.53881 165.29382 0 1 2.98916 6.39801" />
    <path d="M 2.48822 5.46728 L 2.48822 4.25098 L 2.89616 5.80524" />
    <path d="M 2.71259 5.45551 A 0.125 0.01551 80.60888 0 0 2.67179 5.20886" />
    <path d="M 2.71259 6.06366 A 0.125 0.01551 80.60888 0 0 2.67179 5.81702" />
    <path d="M 2.90292 4.18239 L 2.48822 4.25098" />
    <path d="M 4.55714 13.53788 A 0.905 0.71841 360 0 1 4.57617 13.68441 L 4.57617 13.98848 A 0.905 0.71841 360 0 1 2.76617 13.98848" />
    <path d="M 4.57617 13.68441 A 0.905 0.71841 360 0 1 2.76617 13.68441 L 2.76617 13.98848" />
    <path d="M 2.76617 13.68441 A 0.905 0.71841 360 0 1 2.91117 13.29436" />
    <path d="M 4.43117 13.29436 A 0.905 0.71841 360 0 1 4.55714 13.53788" />
    <path d="M 4.57617 4.8662 A 0.905 0.71841 360 0 1 2.76617 4.8662" />
    <path d="M 3.09114 6.78658 A 0.905 0.53881 165.29382 0 1 4.85247 6.4103 L 4.75049 6.02174" />
    <path d="M 4.85247 6.4103 A 0.905 0.53881 165.29382 0 1 4.78648 6.73006" />
    <path d="M 3.31628 7.11594 A 0.905 0.53881 165.29382 0 1 3.10176 6.86979 L 2.99978 6.48123" />
    <path d="M 3.10176 6.86979 A 0.905 0.53881 165.29382 0 1 3.09114 6.78658" />
    <path d="M 2.59429 5.4244 A 0.125 0.01551 260.60888 0 1 2.57389 5.22505 L 2.67179 5.20886" />
    <path d="M 2.57389 5.22505 A 0.125 0.01551 260.60888 0 1 2.61469 5.4717 L 2.71259 5.45551" />
    <path d="M 2.61469 5.4717 A 0.125 0.01551 260.60888 0 1 2.59429 5.4244" />
    <path d="M 2.59429 6.03255 A 0.125 0.01551 260.60888 0 1 2.57389 5.83321 L 2.67179 5.81702" />
    <path d="M 2.57389 5.83321 A 0.125 0.01551 260.60888 1 1 2.61469 6.07986 L 2.71259 6.06366" />
    <path d="M 2.61469 6.07986 A 0.125 0.01551 260.60888 0 1 2.59429 6.03255" />
    <path d="M 4.76844 5.1155 A 0.125 0.01551 80.60888 0 0 4.72765 4.86885 L 4.69476 4.87428" />
    <path d="M 4.55714 4.41559 A 0.905 0.71841 360 0 1 4.57617 4.56212 L 4.57617 4.8662" />
    <path d="M 4.57617 4.56212 A 0.905 0.71841 360 0 1 2.76617 4.56212 L 2.76617 4.8662" />
    <path d="M 2.76617 4.56212 A 0.905 0.71841 360 0 1 2.91117 4.17208" />
    <path d="M 4.43117 4.17208 A 0.905 0.71841 360 0 1 4.55714 4.41559" />
    <path d="M 3.97712 6.17785 A 0.76 0.45248 165.29382 0 1 4.71222 6.44711" />
    <path d="M 3.24201 6.83298 A 0.76 0.45248 165.29382 0 1 3.97712 6.17785" />
    <path d="M 2.89616 14.92753 L 4.85411 14.6037 L 4.44618 13.04944 L 4.43117 13.05192" />
    <path d="M 2.48822 13.37326 L 2.89616 14.92753" />
    <path d="M 2.90292 13.30468 L 2.48822 13.37326" />
    <path d="M 4.43117 4.56212 A 0.76 0.6033 0 0 1 2.91117 4.56212" />
    <path d="M 9.79016 28.32613 A 0.76 0.45248 165.29382 0 1 10.52527 28.59539 L 4.71222 6.44711" />
    <path d="M 10.52527 28.59539 A 0.76 0.45248 165.29382 0 1 9.05506 28.98126 L 3.24201 6.83298" />
    <path d="M 9.05506 28.98126 A 0.76 0.45248 165.29382 0 1 9.79016 28.32613" />
    <path d="M 2.89616 16.14383 L 2.89616 14.92753" />
    <path d="M 2.89616 16.14383 L 3.15343 16.10128" />
    <path d="M 4.8008 15.82882 L 4.85411 15.82001 L 4.85411 15.69545" />
    <path d="M 4.85411 15.53912 L 4.85411 14.6037" />
    <path d="M 2.98916 15.5203 A 0.905 0.53881 165.29382 0 1 4.75049 15.14402" />
    <path d="M 2.99978 15.60351 A 0.905 0.53881 165.29382 0 1 2.98916 15.5203" />
    <path d="M 2.48822 14.58957 L 2.48822 13.37326" />
    <path d="M 2.48822 14.58957 L 2.58383 14.95385" />
    <path d="M 2.64757 15.1967 L 2.89616 16.14383" />
    <path d="M 2.71259 14.5778 A 0.125 0.01551 80.60888 0 0 2.67179 14.33115" />
    <path d="M 2.71259 15.18595 A 0.125 0.01551 80.60888 0 0 2.67179 14.9393" />
    <path d="M 3.51615 -25.52389 A 0.76 0.6033 360 0 1 4.43117 -24.93327 L 4.43117 4.56212" />
    <path d="M 4.43117 -24.93327 A 0.76 0.6033 360 0 1 2.91117 -24.93327 L 2.91117 4.56212" />
    <path d="M 2.91117 -24.93327 A 0.76 0.6033 360 0 1 3.51615 -25.52389" />
    <path d="M 3.09114 15.90887 A 0.905 0.53881 165.29382 0 1 4.85247 15.53259 L 4.75049 15.14402" />
    <path d="M 4.85247 15.53259 A 0.905 0.53881 165.29382 0 1 4.78648 15.85235" />
    <path d="M 3.31628 16.23822 A 0.905 0.53881 165.29382 0 1 3.10176 15.99208 L 2.99978 15.60351" />
    <path d="M 3.10176 15.99208 A 0.905 0.53881 165.29382 0 1 3.09114 15.90887" />
    <path d="M 2.59429 14.54668 A 0.125 0.01551 260.60888 0 1 2.57389 14.34734 L 2.67179 14.33115" />
    <path d="M 2.57389 14.34734 A 0.125 0.01551 260.60888 0 1 2.61469 14.59399 L 2.71259 14.5778" />
    <path d="M 2.61469 14.59399 A 0.125 0.01551 260.60888 0 1 2.59429 14.54668" />
    <path d="M 2.59429 15.15484 A 0.125 0.01551 260.60888 0 1 2.57389 14.95549 L 2.67179 14.9393" />
    <path d="M 2.57389 14.95549 A 0.125 0.01551 260.60888 1 1 2.61469 15.20214 L 2.71259 15.18595" />
    <path d="M 2.61469 15.20214 A 0.125 0.01551 260.60888 0 1 2.59429 15.15484" />
    <path d="M 4.76844 14.23778 A 0.125 0.01551 80.60888 0 0 4.72765 13.99113 L 4.69476 13.99657" />
    <path d="M 3.97712 15.30014 A 0.76 0.45248 165.29382 0 1 4.71222 15.5694" />
    <path d="M 3.24201 15.95527 A 0.76 0.45248 165.29382 0 1 3.97712 15.30014" />
    <path d="M 9.79016 37.44842 A 0.76 0.45248 165.29382 0 1 10.52527 37.71768 L 4.71222 15.5694" />
    <path d="M 10.52527 37.71768 A 0.76 0.45248 165.29382 0 1 9.05506 38.10355 L 3.24201 15.95527" />
    <path d="M 9.05506 38.10355 A 0.76 0.45248 165.29382 0 1 9.79016 37.44842" />
    <path d="M 3.82618 24.30954 A 0.76 0.6033 180 0 0 4.43117 23.71892" />
    <path d="M 2.91117 23.71892 A 0.76 0.6033 180 0 0 3.82618 24.30954" />
    <path d="M 6.17117 8.21104 L 6.17117 8.51511" />
    <path d="M 2.91117 7.01907 L 2.91117 8.21104" />
    <path d="M 2.61469 10.56498 L 2.71259 10.54879" />
    <path d="M 2.57389 10.31833 L 2.61065 10.31225" />
    <path d="M 3.77463 10.54198 L 3.76317 10.49832" />
    <path d="M 4.01644 11.08666 L 3.99604 11.00895" />
    <path d="M 3.77463 11.15013 L 3.75423 11.07242" />
    <path d="M 2.91117 11.50419 L 2.91117 13.68441" />
    <path d="M 4.43117 11.36377 L 4.43117 13.68441" />
    <path d="M 4.76844 5.1155 L 4.7585 5.11714" />
    <path d="M 4.76844 14.23778 L 4.7585 14.23942" />
    <path d="M 2.91117 16.14135 L 2.91117 23.71892" />
    <path d="M 4.43117 20.48606 L 4.43117 23.71892" />
</svg>